<?xml version="1.0" encoding="UTF-8"?>
<svg xmlns="http://www.w3.org/2000/svg" viewBox="0 0 128 128">
  <defs>
    <linearGradient id="pedestal" x1="0" x2="0" y1="0" y2="1">
      <stop offset="0%" stop-color="#465a73" />
      <stop offset="100%" stop-color="#1c3049" />
    </linearGradient>
    <linearGradient id="mainFill" x1="0" x2="0" y1="0" y2="1">
      <stop offset="0%" stop-color="#e3eaf2" />
      <stop offset="100%" stop-color="#adbace" />
    </linearGradient>
    <linearGradient id="armorEdge" x1="0" x2="1" y1="0" y2="1">
      <stop offset="0%" stop-color="#fbffff" stop-opacity="0.8" />
      <stop offset="100%" stop-color="#9ba8bc" stop-opacity="0.05" />
    </linearGradient>
    <filter id="glow" x="-50%" y="-50%" width="200%" height="200%">
      <feGaussianBlur stdDeviation="1.8" result="blur" />
      <feMerge>
        <feMergeNode in="blur" />
        <feMergeNode in="SourceGraphic" />
      </feMerge>
    </filter>
  </defs>
  <ellipse cx="64" cy="104" rx="34" ry="11" fill="rgba(0,0,0,0.28)" />
  <path d="M32 101 H96 L90 112 H38 Z" fill="url(#pedestal)" stroke="#e7f0ff" stroke-width="2.4" />
  <path d="M36 96 H92 L88 102 H40 Z" fill="#40546d" stroke="#e7f0ff" stroke-width="1.8" />
  <g fill="url(#mainFill)" stroke="#e7f0ff" stroke-width="3">
    
      <path d="M46 100 L46 74 Q47 57 61 48 L80 34 L90 47 L82 60 L88 70 L89 98 Q68 104 46 100 Z" />
      <path d="M63 50 L78 42 L80 51 L67 58 Z" />
      <circle cx="72" cy="53" r="2.8" />
      <path d="M52 82 Q64 74 78 82" stroke-width="2.2" stroke-linecap="round" fill="none" />
    
  </g>
  <path d="M44 32 Q64 14 84 32" stroke="url(#armorEdge)" stroke-width="2.3" fill="none" />
  <path d="M50 56 Q64 46 78 56" stroke="url(#armorEdge)" stroke-width="2.1" fill="none" />
  <text x="64" y="121" text-anchor="middle" font-size="11" font-family="Verdana,Segoe UI,sans-serif" fill="#e7f0ff" opacity="0.92">FF</text>
  <circle cx="64" cy="15" r="5" fill="#e3eaf2" filter="url(#glow)" />
</svg>