<?xml version="1.0" encoding="UTF-8"?>
<svg xmlns="http://www.w3.org/2000/svg" viewBox="0 0 128 128">
  <defs>
    <linearGradient id="pedestal" x1="0" x2="0" y1="0" y2="1">
      <stop offset="0%" stop-color="#8c684d" />
      <stop offset="100%" stop-color="#623e23" />
    </linearGradient>
    <linearGradient id="mainFill" x1="0" x2="0" y1="0" y2="1">
      <stop offset="0%" stop-color="#ffdfa7" />
      <stop offset="100%" stop-color="#e2bd88" />
    </linearGradient>
    <linearGradient id="armorEdge" x1="0" x2="1" y1="0" y2="1">
      <stop offset="0%" stop-color="#fff7bf" stop-opacity="0.8" />
      <stop offset="100%" stop-color="#d0ab76" stop-opacity="0.05" />
    </linearGradient>
    <filter id="glow" x="-50%" y="-50%" width="200%" height="200%">
      <feGaussianBlur stdDeviation="1.8" result="blur" />
      <feMerge>
        <feMergeNode in="blur" />
        <feMergeNode in="SourceGraphic" />
      </feMerge>
    </filter>
  </defs>
  <ellipse cx="64" cy="104" rx="34" ry="11" fill="rgba(0,0,0,0.28)" />
  <path d="M32 101 H96 L90 112 H38 Z" fill="url(#pedestal)" stroke="#0f1628" stroke-width="2.4" />
  <path d="M36 96 H92 L88 102 H40 Z" fill="#866247" stroke="#0f1628" stroke-width="1.8" />
  <g fill="url(#mainFill)" stroke="#0f1628" stroke-width="3">
    
      <path d="M64 22 L73 38 L64 56 L55 38 Z" />
      <ellipse cx="64" cy="38" rx="10" ry="12" />
      <path d="M64 48 Q76 58 74 74 Q64 82 54 74 Q52 58 64 48 Z" />
      <path d="M58 66 L70 66" stroke-width="2.2" stroke-linecap="round" fill="none" />
      <path d="M64 56 L64 93" stroke-width="2.2" stroke-linecap="round" fill="none" />
    
  </g>
  <path d="M44 32 Q64 14 84 32" stroke="url(#armorEdge)" stroke-width="2.3" fill="none" />
  <path d="M50 56 Q64 46 78 56" stroke="url(#armorEdge)" stroke-width="2.1" fill="none" />
  <text x="64" y="121" text-anchor="middle" font-size="11" font-family="Verdana,Segoe UI,sans-serif" fill="#0f1628" opacity="0.92">MR</text>
  <circle cx="64" cy="15" r="5" fill="#ffdfa7" filter="url(#glow)" />
</svg>