<?xml version="1.0" encoding="UTF-8"?>
<svg xmlns="http://www.w3.org/2000/svg" viewBox="0 0 128 128">
  <defs>
    <linearGradient id="pedestal" x1="0" x2="0" y1="0" y2="1">
      <stop offset="0%" stop-color="#483961" />
      <stop offset="100%" stop-color="#1e0f37" />
    </linearGradient>
    <linearGradient id="mainFill" x1="0" x2="0" y1="0" y2="1">
      <stop offset="0%" stop-color="#d5bff2" />
      <stop offset="100%" stop-color="#a684db" />
    </linearGradient>
    <linearGradient id="armorEdge" x1="0" x2="1" y1="0" y2="1">
      <stop offset="0%" stop-color="#edd7ff" stop-opacity="0.8" />
      <stop offset="100%" stop-color="#9472c9" stop-opacity="0.05" />
    </linearGradient>
    <filter id="glow" x="-50%" y="-50%" width="200%" height="200%">
      <feGaussianBlur stdDeviation="1.8" result="blur" />
      <feMerge>
        <feMergeNode in="blur" />
        <feMergeNode in="SourceGraphic" />
      </feMerge>
    </filter>
  </defs>
  <ellipse cx="64" cy="104" rx="34" ry="11" fill="rgba(0,0,0,0.28)" />
  <path d="M32 101 H96 L90 112 H38 Z" fill="url(#pedestal)" stroke="#e7f0ff" stroke-width="2.4" />
  <path d="M36 96 H92 L88 102 H40 Z" fill="#42335b" stroke="#e7f0ff" stroke-width="1.8" />
  <g fill="url(#mainFill)" stroke="#e7f0ff" stroke-width="3">
    
      <rect x="46" y="24" width="36" height="12" rx="2" />
      <rect x="48" y="18" width="7" height="8" rx="1" />
      <rect x="60" y="16" width="8" height="10" rx="1" />
      <rect x="73" y="18" width="7" height="8" rx="1" />
      <path d="M50 38 H78 L74 90 H54 Z" />
      <path d="M57 48 V85 M64 46 V88 M71 48 V85" stroke-width="2.1" stroke-linecap="round" fill="none" />
    
  </g>
  <path d="M44 32 Q64 14 84 32" stroke="url(#armorEdge)" stroke-width="2.3" fill="none" />
  <path d="M50 56 Q64 46 78 56" stroke="url(#armorEdge)" stroke-width="2.1" fill="none" />
  <text x="64" y="121" text-anchor="middle" font-size="11" font-family="Verdana,Segoe UI,sans-serif" fill="#e7f0ff" opacity="0.92">OW</text>
  <circle cx="64" cy="15" r="5" fill="#d5bff2" filter="url(#glow)" />
</svg>