<?xml version="1.0" encoding="UTF-8"?>
<svg xmlns="http://www.w3.org/2000/svg" viewBox="0 0 128 128">
  <defs>
    <linearGradient id="pedestal" x1="0" x2="0" y1="0" y2="1">
      <stop offset="0%" stop-color="#5b4c74" />
      <stop offset="100%" stop-color="#31224a" />
    </linearGradient>
    <linearGradient id="mainFill" x1="0" x2="0" y1="0" y2="1">
      <stop offset="0%" stop-color="#e8d2ff" />
      <stop offset="100%" stop-color="#ccaaff" />
    </linearGradient>
    <linearGradient id="armorEdge" x1="0" x2="1" y1="0" y2="1">
      <stop offset="0%" stop-color="#ffeaff" stop-opacity="0.8" />
      <stop offset="100%" stop-color="#ba98ed" stop-opacity="0.05" />
    </linearGradient>
    <filter id="glow" x="-50%" y="-50%" width="200%" height="200%">
      <feGaussianBlur stdDeviation="1.8" result="blur" />
      <feMerge>
        <feMergeNode in="blur" />
        <feMergeNode in="SourceGraphic" />
      </feMerge>
    </filter>
  </defs>
  <ellipse cx="64" cy="104" rx="34" ry="11" fill="rgba(0,0,0,0.28)" />
  <path d="M32 101 H96 L90 112 H38 Z" fill="url(#pedestal)" stroke="#0f1628" stroke-width="2.4" />
  <path d="M36 96 H92 L88 102 H40 Z" fill="#55466e" stroke="#0f1628" stroke-width="1.8" />
  <g fill="url(#mainFill)" stroke="#0f1628" stroke-width="3">
    
    <rect x="60" y="19" width="8" height="24" rx="2" />
    <rect x="52" y="27" width="24" height="8" rx="2" />
    <path d="M49 45 H79 L74 66 H54 Z" />
    <path d="M53 66 H75 L73 92 Q64 98 55 92 Z" />
    <path d="M58 74 H70 M60 82 H68" stroke-width="2.1" stroke-linecap="round" fill="none" />
  
  </g>
  <path d="M44 32 Q64 14 84 32" stroke="url(#armorEdge)" stroke-width="2.3" fill="none" />
  <path d="M50 56 Q64 46 78 56" stroke="url(#armorEdge)" stroke-width="2.1" fill="none" />
  <text x="64" y="121" text-anchor="middle" font-size="11" font-family="Verdana,Segoe UI,sans-serif" fill="#0f1628" opacity="0.92">OW</text>
  <circle cx="64" cy="15" r="5" fill="#e8d2ff" filter="url(#glow)" />
</svg>