<?xml version="1.0" encoding="UTF-8"?>
<svg xmlns="http://www.w3.org/2000/svg" viewBox="0 0 128 128">
  <defs>
    <linearGradient id="pedestal" x1="0" x2="0" y1="0" y2="1">
      <stop offset="0%" stop-color="#625343" />
      <stop offset="100%" stop-color="#382919" />
    </linearGradient>
    <linearGradient id="mainFill" x1="0" x2="0" y1="0" y2="1">
      <stop offset="0%" stop-color="#f2e3b1" />
      <stop offset="100%" stop-color="#bbaa73" />
    </linearGradient>
    <linearGradient id="armorEdge" x1="0" x2="1" y1="0" y2="1">
      <stop offset="0%" stop-color="#fffbc9" stop-opacity="0.8" />
      <stop offset="100%" stop-color="#a99861" stop-opacity="0.05" />
    </linearGradient>
    <filter id="glow" x="-50%" y="-50%" width="200%" height="200%">
      <feGaussianBlur stdDeviation="1.8" result="blur" />
      <feMerge>
        <feMergeNode in="blur" />
        <feMergeNode in="SourceGraphic" />
      </feMerge>
    </filter>
  </defs>
  <ellipse cx="64" cy="104" rx="34" ry="11" fill="rgba(0,0,0,0.28)" />
  <path d="M32 101 H96 L90 112 H38 Z" fill="url(#pedestal)" stroke="#e7f0ff" stroke-width="2.4" />
  <path d="M36 96 H92 L88 102 H40 Z" fill="#5c4d3d" stroke="#e7f0ff" stroke-width="1.8" />
  <g fill="url(#mainFill)" stroke="#e7f0ff" stroke-width="3">
    
      <circle cx="64" cy="33" r="11" />
      <path d="M51 51 Q64 45 77 51 L82 78 Q64 84 46 78 Z" />
      <path d="M52 77 L76 77 L79 97 Q64 104 49 97 Z" />
      <path d="M49 63 H79" stroke-width="2.2" stroke-linecap="round" fill="none" />
    
  </g>
  <path d="M44 32 Q64 14 84 32" stroke="url(#armorEdge)" stroke-width="2.3" fill="none" />
  <path d="M50 56 Q64 46 78 56" stroke="url(#armorEdge)" stroke-width="2.1" fill="none" />
  <text x="64" y="121" text-anchor="middle" font-size="11" font-family="Verdana,Segoe UI,sans-serif" fill="#e7f0ff" opacity="0.92">MO</text>
  <circle cx="64" cy="15" r="5" fill="#f2e3b1" filter="url(#glow)" />
</svg>